<?xml version="1.0" encoding="UTF-8"?>
<svg xmlns="http://www.w3.org/2000/svg" width="360" height="560" viewBox="0 0 360 560">
  <rect width="360" height="560" fill="#F3F4F6"/>
  <!-- Header -->
  <rect x="0" y="0" width="360" height="64" fill="#1E3A8A"/>
  <text x="20" y="40" font-family="Arial, Helvetica, sans-serif" font-size="20" font-weight="bold" fill="#FFFFFF">Papelería Digital</text>
  <!-- Buscador -->
  <rect x="16" y="80" width="328" height="44" rx="22" fill="#FFFFFF" stroke="#E5E7EB"/>
  <text x="36" y="107" font-family="Arial, Helvetica, sans-serif" font-size="14" fill="#6B7280">Buscar producto...</text>
  <!-- Tarjetas -->
  <g font-family="Arial, Helvetica, sans-serif">
    <rect x="16" y="140" width="328" height="76" rx="12" fill="#FFFFFF" stroke="#E5E7EB"/>
    <rect x="28" y="152" width="52" height="52" rx="8" fill="#CBD5E1"/>
    <text x="92" y="172" font-size="13" font-weight="bold" fill="#111827">Cuaderno cuadriculado 100 hojas</text>
    <text x="92" y="190" font-size="11" fill="#6B7280">Cuaderno cosido, tapa dura</text>
    <text x="92" y="208" font-size="13" font-weight="bold" fill="#EA580C">$ 8.500</text>

    <rect x="16" y="228" width="328" height="76" rx="12" fill="#FFFFFF" stroke="#E5E7EB"/>
    <rect x="28" y="240" width="52" height="52" rx="8" fill="#CBD5E1"/>
    <text x="92" y="260" font-size="13" font-weight="bold" fill="#111827">Mochila escolar dos compartimentos</text>
    <text x="92" y="278" font-size="11" fill="#6B7280">Resistente al agua</text>
    <text x="92" y="296" font-size="13" font-weight="bold" fill="#EA580C">$ 89.900</text>

    <rect x="16" y="316" width="328" height="76" rx="12" fill="#FFFFFF" stroke="#E5E7EB"/>
    <rect x="28" y="328" width="52" height="52" rx="8" fill="#CBD5E1"/>
    <text x="92" y="348" font-size="13" font-weight="bold" fill="#111827">Caja de boligrafos x3</text>
    <text x="92" y="366" font-size="11" fill="#6B7280">Tinta de secado rápido</text>
    <text x="92" y="384" font-size="13" font-weight="bold" fill="#EA580C">$ 6.500</text>
  </g>
  <text x="16" y="540" font-family="Arial, Helvetica, sans-serif" font-size="12" fill="#6B7280">Home: encabezado + buscador + FlatList</text>
</svg>
